<svg width="25" height="26" viewBox="0 0 25 26" fill="none" xmlns="http://www.w3.org/2000/svg">
<path d="M25 1.625C25 0.727537 24.2538 0 23.3333 0L1.66667 0C0.746191 0 0 0.727537 0 1.625C0 2.52246 0.746191 3.25 1.66667 3.25L23.3333 3.25C24.2538 3.25 25 2.52246 25 1.625Z" fill="white"/>
<path d="M25 13C25 12.1025 24.2538 11.375 23.3333 11.375L1.66667 11.375C0.746191 11.375 0 12.1025 0 13C0 13.8975 0.746191 14.625 1.66667 14.625L23.3333 14.625C24.2538 14.625 25 13.8975 25 13Z" fill="white"/>
<path d="M25 24.375C25 23.4775 24.2538 22.75 23.3333 22.75L1.66667 22.75C0.746191 22.75 0 23.4775 0 24.375C0 25.2725 0.746191 26 1.66667 26L23.3333 26C24.2538 26 25 25.2725 25 24.375Z" fill="white"/>
</svg>
